# xmcd CD database file
#
# Track frame offsets:
#	150
#	17155
#	34008
#	51844
#	65096
#	82941
#	101266
#	119349
#	134927
#	152109
#	168061
#	183055
#
# Disc length: 2705 seconds
#
# Revision: 0
# Processed by: cddbd v1.5.2PL0 Copyright (c) Steve Scherf et al.
# Submitted via: CDex 1.51
#
DISCID=970a8f0c
DTITLE=Lucie Bila - Woman
DYEAR=2007
DGENRE=New Age
TTITLE0=Stuj
TTITLE1=Miluji Te (Woman)
TTITLE2=Osudova laska
TTITLE3=Viajpi
TTITLE4=Soumrak
TTITLE5=Plynovy lampy
TTITLE6=Doufam
TTITLE7=Kruhy v obili
TTITLE8=Poslouchas?
TTITLE9=Pes bezdomovec
TTITLE10=Zivy nas nedostanou
TTITLE11=bonus: Adagio
EXTD=YEAR: 2007
EXTT0=
EXTT1=
EXTT2=
EXTT3=
EXTT4=
EXTT5=
EXTT6=
EXTT7=
EXTT8=
EXTT9=
EXTT10=
EXTT11=
PLAYORDER=
